<?xml version="1.0" encoding="UTF-8" standalone="no"?>
<!DOCTYPE svg PUBLIC "-//W3C//DTD SVG 1.1//EN" "http://www.w3.org/Graphics/SVG/1.1/DTD/svg11.dtd">
<svg width="100%" height="100%" viewBox="0 0 272 272" version="1.1" xmlns="http://www.w3.org/2000/svg" xmlns:xlink="http://www.w3.org/1999/xlink" xml:space="preserve" xmlns:serif="http://www.serif.com/" style="fill-rule:evenodd;clip-rule:evenodd;stroke-linejoin:round;stroke-miterlimit:2;">
    <g transform="matrix(1.06482,0,0,1.06482,0,0)">
        <path d="M255.443,38.317C255.443,17.169 238.274,0 217.127,0L38.317,0C17.169,0 0,17.169 0,38.317L0,217.127C0,238.274 17.169,255.443 38.317,255.443L217.127,255.443C238.274,255.443 255.443,238.274 255.443,217.127L255.443,38.317Z" style="fill:rgb(26,26,26);"/>
    </g>
    <g transform="matrix(0.87826,0,0,0.87826,16.5566,16.5566)">
        <path d="M106.08,237.2L147.08,196.58L217.91,267.48C191.23,267.54 164.56,267.46 137.89,267.52C136.37,267.86 135.43,266.47 134.46,265.61L106.08,237.2Z" style="fill:rgb(33,78,24);fill-rule:nonzero;"/>
        <path d="M65.36,196.47L106.07,155.81L146.91,196.4L147.08,196.58L106.08,237.2L65.36,196.47Z" style="fill:rgb(33,78,24);fill-rule:nonzero;"/>
        <path d="M65.36,196.47L106.07,155.81L146.91,196.4L147.08,196.58L106.08,237.2L65.36,196.47Z" style="fill:rgb(245,124,0);fill-opacity:0.5;fill-rule:nonzero;"/>
        <path d="M136.28,4.09L217.95,4L80.93,140.95L45.22,176.46L4.59,135.78L136.28,4.09ZM135.52,126.37C136.58,124.97 138.53,125.66 140.01,125.48L217.88,125.5L146.91,196.4L106.07,155.81L135.52,126.37Z" style="fill:rgb(245,124,0);fill-rule:nonzero;"/>
    </g>
    <g transform="matrix(0.87826,0,0,0.87826,16.5566,16.5566)">
        <g transform="matrix(1.13861,0,0,1.13861,-18.8516,-18.8516)">
            <path d="M73.96,189.108L109.714,153.398L145.582,189.047L145.731,189.205L207.938,251.474C184.506,251.526 161.083,251.456 137.66,251.509C136.325,251.807 135.499,250.587 134.647,249.831L109.722,224.88L73.96,189.108Z" style="fill:rgb(33,78,24);fill-rule:nonzero;stroke:white;stroke-width:2px;"/>
        </g>
        <g transform="matrix(1.13861,0,0,1.13861,-18.8516,-18.8516)">
            <path d="M145.731,189.205L109.722,224.88L73.96,189.108L109.714,153.398L135.578,127.542C136.509,126.313 138.222,126.919 139.522,126.761L207.912,126.778L145.582,189.047L145.731,189.205ZM136.246,20.149L207.973,20.07L87.634,140.347L56.272,171.534L20.588,135.807L136.246,20.149Z" style="fill:rgb(245,124,0);fill-opacity:0.5;fill-rule:nonzero;stroke:white;stroke-width:2px;"/>
        </g>
    </g>
</svg>
