<?xml version="1.0" encoding="UTF-8" standalone="no"?>
<!DOCTYPE svg PUBLIC "-//W3C//DTD SVG 1.1//EN" "http://www.w3.org/Graphics/SVG/1.1/DTD/svg11.dtd">
<svg width="100%" height="100%" viewBox="0 0 430 430" version="1.1" xmlns="http://www.w3.org/2000/svg" xmlns:xlink="http://www.w3.org/1999/xlink" xml:space="preserve" xmlns:serif="http://www.serif.com/" style="fill-rule:evenodd;clip-rule:evenodd;stroke-linejoin:round;stroke-miterlimit:2;">
    <path d="M215.05,345.89C210.08,345.89 206.01,341.86 206.01,336.89C206.01,331.92 210,327.89 214.97,327.89L215.04,327.89C220.01,327.89 224.04,331.92 224.04,336.89C224.04,341.86 220.02,345.89 215.05,345.89Z" style="fill:white;fill-rule:nonzero;"/>
    <path d="M172.71,169.88L103.92,169.88C100.61,169.88 97.92,167.19 97.92,163.88C97.92,160.57 100.61,157.88 103.92,157.88L172.71,157.88C176.02,157.88 178.71,160.57 178.71,163.88C178.71,167.19 176.02,169.88 172.71,169.88ZM326.11,169.88L212.14,169.88C208.83,169.88 206.14,167.19 206.14,163.88C206.14,160.57 208.83,157.88 212.14,157.88L326.11,157.88C329.42,157.88 332.11,160.57 332.11,163.88C332.11,167.19 329.42,169.88 326.11,169.88Z" style="fill:white;fill-rule:nonzero;"/>
    <path d="M226.46,384.06L203.57,384.06C194.28,384.06 185.58,380.24 179.07,373.3C171.94,365.7 168.25,355.13 168.94,344.31L176.27,246.23C176.56,241.81 175.02,237.53 171.95,234.25C168.88,230.98 164.72,229.17 160.24,229.17C143.58,229.17 127.93,222.69 116.18,210.92C104.41,199.15 97.92,183.5 97.92,166.86L97.92,52.2C97.92,48.89 100.61,46.2 103.92,46.2C107.23,46.2 109.92,48.89 109.92,52.2L109.92,166.86C109.92,180.3 115.16,192.93 124.66,202.44C134.15,211.94 146.79,217.17 160.24,217.17C167.96,217.17 175.42,220.4 180.71,226.04C186,231.68 188.75,239.34 188.25,247.06L180.92,345.14C180.44,352.6 182.96,359.9 187.83,365.09C192.05,369.58 197.64,372.06 203.58,372.06L226.47,372.06C232.41,372.06 238.01,369.58 242.23,365.08C247.1,359.89 249.61,352.59 249.13,345.08L241.8,247.12C241.3,239.34 244.05,231.68 249.34,226.04C254.647,220.391 262.059,217.179 269.81,217.17C297.56,217.17 320.13,194.6 320.13,166.86L320.13,58.2L296.8,58.2L274.61,113.84C273.643,116.281 271.177,117.814 268.56,117.6C265.943,117.385 263.755,115.482 263.18,112.92L250.97,58.2L210.16,58.2C206.85,58.2 204.16,55.51 204.16,52.2C204.16,48.89 206.85,46.2 210.16,46.2L255.78,46.2C258.59,46.2 261.03,48.15 261.64,50.9L270.64,91.34L287.14,49.98C288.048,47.705 290.26,46.203 292.71,46.2L326.11,46.2C329.42,46.2 332.11,48.89 332.11,52.2L332.11,166.86C332.11,201.22 304.15,229.17 269.79,229.17C265.31,229.17 261.14,230.97 258.08,234.25C255.01,237.53 253.47,241.8 253.76,246.29L261.09,344.25C261.79,355.13 258.11,365.69 250.98,373.3C244.46,380.23 235.76,384.06 226.46,384.06Z" style="fill:white;fill-rule:nonzero;"/>
    <path d="M192.43,194.51C179.35,194.51 168.71,183.87 168.71,170.79L168.71,102.93C168.71,99.93 167.1,95.76 163.51,93.21C162.11,92.21 159.43,91.21 156.99,91.21C154.63,91.21 152.34,91.92 150.39,93.26C147.38,95.32 145.53,98.55 145.3,102.13C144.47,114.71 134.06,124.55 121.61,124.55C109.06,124.55 98.66,114.74 97.93,102.22C97.9,101.77 97.89,101.3 97.89,100.83L97.92,52.19C97.92,48.88 100.61,46.19 103.92,46.19C107.23,46.19 109.92,48.88 109.92,52.19L109.89,100.83C109.89,101.06 109.9,101.29 109.91,101.51C110.27,107.7 115.41,112.54 121.61,112.54C127.66,112.54 132.91,107.51 133.32,101.33C133.79,94.06 137.54,87.5 143.6,83.35C147.536,80.635 152.208,79.184 156.99,79.19C161.65,79.19 166.82,80.81 170.47,83.42C178.02,88.77 180.71,97 180.71,102.91L180.71,170.77C180.71,177.23 185.97,182.49 192.43,182.49C198.89,182.49 204.14,177.23 204.14,170.77L204.14,88.32L204.16,52.2C204.16,48.89 206.85,46.2 210.16,46.2C213.47,46.2 216.16,48.89 216.16,52.2L216.14,88.32L216.14,170.79C216.14,183.87 205.5,194.51 192.43,194.51Z" style="fill:white;fill-rule:nonzero;"/>
    <path d="M210.16,57.94L103.92,57.94C100.61,57.94 97.92,55.25 97.92,51.94C97.92,48.63 100.61,45.94 103.92,45.94L210.15,45.94C213.46,45.94 216.15,48.63 216.15,51.94C216.15,55.25 213.47,57.94 210.16,57.94Z" style="fill:white;fill-rule:nonzero;"/>
</svg>
