<?xml version="1.0" encoding="utf-8"?>
<!-- Generator: Adobe Illustrator 24.1.2, SVG Export Plug-In . SVG Version: 6.00 Build 0)  -->
<svg version="1.1" id="Warstwa_1" xmlns="http://www.w3.org/2000/svg" xmlns:xlink="http://www.w3.org/1999/xlink" x="0px" y="0px"
	 viewBox="0 0 430 430" style="enable-background:new 0 0 430 430;" xml:space="preserve">
<style type="text/css">
	.st0{fill:#6b9474;}
	.st1{fill:#6b9474;}
	.st2{fill:#6b9474;}
	.st3{fill:none;}
	.st4{fill:#08A385;}
	.st5{fill:none;stroke:#08A385;stroke-width:12;stroke-linecap:round;stroke-linejoin:round;stroke-miterlimit:10;}
	.st6{fill:none;stroke:#6b9474;stroke-width:12;stroke-linecap:round;stroke-linejoin:round;stroke-miterlimit:10;}
</style>
<g>
	<g>
		<path class="st0" d="M261.37,212.32c-3.31,0-6,2.69-6,6v150.8h-41.38v-16.46h7.35c3.31,0,6-2.69,6-6s-2.69-6-6-6h-7.35v-13.21
			h7.35c3.31,0,6-2.69,6-6s-2.69-6-6-6h-7.35v-13.21h7.35c3.31,0,6-2.69,6-6s-2.69-6-6-6h-7.35v-13.21h7.35c3.31,0,6-2.69,6-6
			s-2.69-6-6-6h-7.35v-13.21h7.35c3.31,0,6-2.69,6-6s-2.69-6-6-6h-7.35v-19.5c0-3.31-2.69-6-6-6s-6,2.69-6,6v154.8
			c0,3.31,2.69,6,6,6h53.38c3.31,0,6-2.69,6-6v-156.8C267.37,215.01,264.68,212.32,261.37,212.32z"/>
		<path class="st0" d="M315.58,63.08c-1.08-1.83-3.05-2.96-5.17-2.96h-23.7v-5.24c0-3.31-2.69-6-6-6h-19.34h-53.36
			c-0.01,0-0.01,0-0.02,0h-21.69c-0.32,0-0.64,0.03-0.96,0.08l-55.72,9c-1.81,0.29-3.39,1.4-4.28,3l-11,19.69
			c-1.04,1.86-1.01,4.13,0.06,5.96s3.05,2.96,5.17,2.96h82.4v54.56c0,3.31,2.69,6,6,6s6-2.69,6-6V83.64c0-0.02,0-0.04,0-0.07
			c0-3.31-2.69-6-6-6h-78.18l4.6-8.23l52.38-8.46h21.18c0.01,0,0.01,0,0.02,0h53.38h13.34v5.24c0,3.31,2.69,6,6,6h16.17
			c-2.69,1.78-5.72,3.05-8.96,3.72l-13.23,2.73h-13.29c-0.01,0-0.03,0-0.04,0c-3.31,0-6,2.69-6,6v57.56c0,3.31,2.69,6,6,6
			s6-2.69,6-6V90.57h7.94c0.41,0,0.81-0.04,1.21-0.12l13.83-2.86c10.73-2.22,19.95-8.97,25.3-18.54
			C316.69,67.19,316.66,64.92,315.58,63.08z"/>
	</g>
	<path class="st1" d="M221.34,226.32h-26.69c-3.31,0-6-2.69-6-6v-41.5h-2.34c-0.32,0-0.64-0.03-0.96-0.08l-55.72-9
		c-1.81-0.29-3.39-1.4-4.28-3l-11-19.69c-1.04-1.86-1.01-4.13,0.06-5.96c1.08-1.83,3.05-2.96,5.17-2.96h101.75c3.31,0,6,2.69,6,6
		v76.19C227.34,223.64,224.65,226.32,221.34,226.32z M200.65,214.32h14.69v-64.19h-85.53l4.6,8.23l52.38,8.46h7.86
		c3.31,0,6,2.69,6,6V214.32z"/>
	<path class="st1" d="M315.65,121.02c-5.34-9.57-14.56-16.33-25.3-18.54l-13.83-2.85c-0.4-0.08-0.8-0.12-1.21-0.12h-13.94
		c-3.31,0-6,2.69-6,6v30.63h-1.38c-3.31,0-6,2.69-6,6v76.19c0,3.31,2.69,6,6,6h26.69c3.31,0,6-2.69,6-6v-32.09h7c3.31,0,6-2.69,6-6
		s-2.69-6-6-6h-7v-31.49c0.02-0.2,0.03-0.4,0.03-0.6v-12.19h23.7c2.13,0,4.1-1.13,5.17-2.96
		C316.66,125.14,316.69,122.87,315.65,121.02z M280.71,117.94c-3.31,0-6,2.69-6,6v17.59c-0.02,0.2-0.03,0.4-0.03,0.6v70.19h-14.69
		v-64.19h1.38c3.31,0,6-2.69,6-6V111.5h7.33l13.23,2.73c3.23,0.67,6.26,1.94,8.96,3.71H280.71z"/>
</g>
</svg>
