<?xml version="1.0" encoding="utf-8"?>
<!-- Generator: Adobe Illustrator 26.3.1, SVG Export Plug-In . SVG Version: 6.00 Build 0)  -->
<svg version="1.1" id="Warstwa_1" xmlns="http://www.w3.org/2000/svg" xmlns:xlink="http://www.w3.org/1999/xlink" x="0px" y="0px"
	 viewBox="0 0 430 430" style="enable-background:new 0 0 430 430;" xml:space="preserve">
<style type="text/css">
	.Styl_x0020_grafiki_x0020_218{fill:#d2b493;}
	.Styl_x0020_grafiki_x0020_1950{fill:#2b3b2e;}
	.Styl_x0020_grafiki_x0020_222{opacity:0.5;fill:#f0f4f1;}
	.Styl_x0020_grafiki_x0020_223{fill:#f0f4f1;}
	.st0{fill:#d2b493;}
	.st1{fill:none;stroke:#d2b493;stroke-width:7;stroke-linecap:round;stroke-linejoin:round;stroke-miterlimit:10;}
	.st2{fill:#f0f4f1;}
	.st3{fill:#151e17;}
	.st4{fill:#2b3b2e;}
	.st5{fill:#92140C;}
	.st6{fill:#b4824b;}
	.st7{opacity:0.5;fill:#b4824b;}
	.st8{opacity:0.5;fill:#f0f4f1;}
	.st9{fill:#FFC738;}
	.st10{opacity:0.5;fill:#FFC738;}
	.st11{fill:#151e17;stroke:#f0f4f1;stroke-width:7;stroke-linecap:round;stroke-linejoin:round;stroke-miterlimit:10;}
	.st12{fill:#4BB3FD;}
	.st13{opacity:0.5;fill:#4BB3FD;}
	.st14{fill:none;stroke:#151e17;stroke-width:7;stroke-linecap:round;stroke-linejoin:round;stroke-miterlimit:10;}
	.st15{opacity:0.5;}
	.st16{fill:#151e17;stroke:#4BB3FD;stroke-width:30;stroke-linecap:round;stroke-linejoin:round;stroke-miterlimit:10;}
	.st17{fill:none;stroke:#151e17;stroke-width:12;stroke-linecap:round;stroke-linejoin:round;}
	.st18{fill:#2CA58D;}
	.st19{fill:none;stroke:#08A88A;stroke-width:12;stroke-linecap:round;stroke-linejoin:round;stroke-miterlimit:10;}
	.st20{opacity:0.5;fill:#2CA58D;}
	.st21{opacity:0.5;fill:#d2b493;}
	.st22{fill:none;stroke:#FFC738;stroke-width:7;stroke-linecap:round;stroke-linejoin:round;stroke-miterlimit:10;}
	.st23{fill:#2b3b2e;stroke:#151e17;stroke-width:7;stroke-linecap:round;stroke-linejoin:round;stroke-miterlimit:10;}
	.st24{opacity:0.5;fill:#2b3b2e;}
	.st25{fill:url(#SVGID_1_);}
	.st26{fill:url(#SVGID_00000046321142107399592030000017965644576360742578_);}
	.st27{fill:url(#SVGID_00000044159835790040297250000014826061417005168772_);}
	.st28{fill:#B26836;}
	.st29{opacity:0.5;fill:#92140C;}
	.st30{fill:#F28BA8;}
	.st31{fill:none;stroke:#f0f4f1;stroke-width:7;stroke-linecap:round;stroke-linejoin:round;stroke-miterlimit:10;}
	.st32{opacity:0.5;fill:#B26836;}
	.st33{fill:#08A789;}
	.st34{fill:#FFFFFF;}
	.st35{fill:none;stroke:#B26836;stroke-width:7;stroke-linecap:round;stroke-linejoin:round;stroke-miterlimit:10;}
	.st36{opacity:0.99;fill:#f0f4f1;}
	.st37{fill:#F9C9C0;}
	.st38{opacity:0.5;fill:#F9C9C0;}
	.st39{opacity:0.5;fill:#F28BA8;}
	.st40{fill:none;stroke:#08A284;stroke-width:12;stroke-linecap:round;stroke-linejoin:round;stroke-miterlimit:10;}
	.st41{fill:none;stroke:#92140C;stroke-width:7;stroke-linecap:round;stroke-linejoin:round;stroke-miterlimit:10;}
	.st42{fill:none;stroke:#08A688;stroke-width:12;stroke-linecap:round;stroke-linejoin:round;stroke-miterlimit:10;}
	.st43{opacity:0.96;fill:#f0f4f1;}
	.st44{fill:none;stroke:#151e17;stroke-width:12;stroke-linecap:round;stroke-linejoin:round;stroke-miterlimit:10;}
	.st45{fill:#08A88A;}
	.st46{fill:none;stroke:#2CA58D;stroke-width:7;stroke-linecap:round;stroke-linejoin:round;stroke-miterlimit:10;}
	.st47{fill:#151e17;stroke:#FFC738;stroke-width:7;stroke-linecap:round;stroke-linejoin:round;stroke-miterlimit:10;}
	.st48{fill:#151e17;stroke:#92140C;stroke-width:7;stroke-linejoin:round;stroke-miterlimit:10;}
	.st49{fill:none;stroke:#92140C;stroke-width:7;stroke-linejoin:round;stroke-miterlimit:10;}
	.st50{opacity:0.75;fill:#f0f4f1;}
	.st51{fill:#151e17;stroke:#d2b493;stroke-width:12;stroke-linecap:round;stroke-linejoin:round;stroke-miterlimit:10;}
	.st52{fill:#E94E12;}
	.st53{fill:#E84F16;}
	.st54{opacity:0.5;fill:#FFFFFF;}
</style>
<g>
	<path class="Styl_x0020_grafiki_x0020_223" d="M289.73,378.62H140.27c-8.55,0-15.5-6.95-15.5-15.5V66.88
		c0-8.55,6.95-15.5,15.5-15.5h149.46c8.55,0,15.5,6.95,15.5,15.5v296.24C305.23,371.67,298.28,378.62,289.73,378.62z"/>
	<path class="Styl_x0020_grafiki_x0020_222" d="M145.46,363.12V66.88c0-6.4,3.19-12.06,8.05-15.5h-13.24
		c-8.55,0-15.5,6.95-15.5,15.5v296.24c0,8.55,6.95,15.5,15.5,15.5h13.24C148.65,375.17,145.46,369.52,145.46,363.12z"/>
	<g>
		<path class="st18" d="M251.24,359.22h-79.48c-1.93,0-3.5-1.57-3.5-3.5s1.57-3.5,3.5-3.5h79.48c1.93,0,3.5,1.57,3.5,3.5
			S253.17,359.22,251.24,359.22z"/>
	</g>
	<path class="st3" d="M251.53,234.3h-80.06c-1.93,0-3.5-1.57-3.5-3.5s1.57-3.5,3.5-3.5h80.06c1.93,0,3.5,1.57,3.5,3.5
		S253.46,234.3,251.53,234.3z"/>
	<path class="st3" d="M251.53,267.72h-80.06c-1.93,0-3.5-1.57-3.5-3.5s1.57-3.5,3.5-3.5h80.06c1.93,0,3.5,1.57,3.5,3.5
		S253.46,267.72,251.53,267.72z"/>
	<path class="st3" d="M251.53,301.14h-80.06c-1.93,0-3.5-1.57-3.5-3.5s1.57-3.5,3.5-3.5h80.06c1.93,0,3.5,1.57,3.5,3.5
		S253.46,301.14,251.53,301.14z"/>
	<rect x="171.47" y="128.46" class="Styl_x0020_grafiki_x0020_1950" width="80.06" height="66.83"/>
	<path class="Styl_x0020_grafiki_x0020_218" d="M169.67,51.38c5.28,0.29,9.81,2.66,11.35,5.67l3.03,5.92
		c1.29,2.52,5.26,4.25,9.76,4.25h43.07c4.5,0,8.47-1.73,9.76-4.25l3.03-5.92c0.79-1.02,2.29-2.68,4.69-3.92
		c2.26-1.16,4.4-1.62,5.97-1.76"/>
	<path class="st3" d="M289.73,382.12H140.27c-10.48,0-19-8.52-19-19V66.88c0-10.48,8.52-19,19-19h149.46c10.48,0,19,8.52,19,19
		v296.24C308.73,373.6,300.21,382.12,289.73,382.12z M140.27,54.88c-6.62,0-12,5.38-12,12v296.24c0,6.62,5.38,12,12,12h149.46
		c6.62,0,12-5.38,12-12V66.88c0-6.62-5.38-12-12-12H140.27z"/>
	<path class="st3" d="M236.88,70.72h-43.07c-5.91,0-10.96-2.42-12.88-6.16l-3.03-5.92c-0.85-1.65-4.09-3.54-8.43-3.77
		c-1.93-0.11-3.41-1.76-3.3-3.69c0.11-1.93,1.73-3.43,3.69-3.3c6.5,0.36,12.11,3.33,14.28,7.57l3.03,5.92
		c0.49,0.95,2.93,2.35,6.65,2.35h43.07c3.71,0,6.16-1.4,6.65-2.35l3.03-5.92c0.1-0.19,0.21-0.37,0.35-0.55
		c1.57-2.03,3.59-3.72,5.85-4.89c2.88-1.49,5.54-1.98,7.27-2.13c1.92-0.17,3.62,1.25,3.79,3.18c0.17,1.93-1.25,3.62-3.18,3.8
		c-1.1,0.1-2.8,0.42-4.67,1.38c-1.27,0.65-2.41,1.59-3.33,2.71l-2.87,5.61C247.85,68.31,242.79,70.72,236.88,70.72z"/>
	<path class="st3" d="M251.53,198.8h-80.06c-1.93,0-3.5-1.57-3.5-3.5v-66.83c0-1.93,1.57-3.5,3.5-3.5h80.06c1.93,0,3.5,1.57,3.5,3.5
		v66.83C255.03,197.23,253.46,198.8,251.53,198.8z M174.97,191.8h73.06v-59.83h-73.06V191.8z"/>
</g>
</svg>
