<?xml version="1.0" encoding="UTF-8" standalone="no"?>
<!DOCTYPE svg PUBLIC "-//W3C//DTD SVG 1.1//EN" "http://www.w3.org/Graphics/SVG/1.1/DTD/svg11.dtd">
<svg width="100%" height="100%" viewBox="0 0 430 430" version="1.1" xmlns="http://www.w3.org/2000/svg" xmlns:xlink="http://www.w3.org/1999/xlink" xml:space="preserve" xmlns:serif="http://www.serif.com/" style="fill-rule:evenodd;clip-rule:evenodd;stroke-linejoin:round;stroke-miterlimit:2;">
    <path d="M261.37,212.32C258.06,212.32 255.37,215.01 255.37,218.32L255.37,369.12L213.99,369.12L213.99,352.66L221.34,352.66C224.65,352.66 227.34,349.97 227.34,346.66C227.34,343.35 224.65,340.66 221.34,340.66L213.99,340.66L213.99,327.45L221.34,327.45C224.65,327.45 227.34,324.76 227.34,321.45C227.34,318.14 224.65,315.45 221.34,315.45L213.99,315.45L213.99,302.24L221.34,302.24C224.65,302.24 227.34,299.55 227.34,296.24C227.34,292.93 224.65,290.24 221.34,290.24L213.99,290.24L213.99,277.03L221.34,277.03C224.65,277.03 227.34,274.34 227.34,271.03C227.34,267.72 224.65,265.03 221.34,265.03L213.99,265.03L213.99,251.82L221.34,251.82C224.65,251.82 227.34,249.13 227.34,245.82C227.34,242.51 224.65,239.82 221.34,239.82L213.99,239.82L213.99,220.32C213.99,217.01 211.3,214.32 207.99,214.32C204.68,214.32 201.99,217.01 201.99,220.32L201.99,375.12C201.99,378.43 204.68,381.12 207.99,381.12L261.37,381.12C264.68,381.12 267.37,378.43 267.37,375.12L267.37,218.32C267.37,215.01 264.68,212.32 261.37,212.32ZM315.58,63.08C314.502,61.251 312.533,60.124 310.41,60.12L286.71,60.12L286.71,54.88C286.71,51.57 284.02,48.88 280.71,48.88L186.3,48.88C185.98,48.88 185.66,48.91 185.34,48.96L129.62,57.96C127.81,58.25 126.23,59.36 125.34,60.96L114.34,80.65C113.3,82.51 113.33,84.78 114.4,86.61C115.47,88.44 117.45,89.57 119.57,89.57L201.97,89.57L201.97,144.13C201.97,147.44 204.66,150.13 207.97,150.13C211.28,150.13 213.97,147.44 213.97,144.13L213.97,83.57C213.97,80.26 211.28,77.57 207.97,77.57L129.79,77.57L134.39,69.34L186.77,60.88L274.69,60.88L274.69,66.12C274.69,69.43 277.38,72.12 280.69,72.12L296.86,72.12C294.138,73.919 291.096,75.182 287.9,75.84L274.67,78.57L261.34,78.57C258.03,78.57 255.34,81.26 255.34,84.57L255.34,142.13C255.34,145.44 258.03,148.13 261.34,148.13C264.65,148.13 267.34,145.44 267.34,142.13L267.34,90.57L275.28,90.57C275.69,90.57 276.09,90.53 276.49,90.45L290.32,87.59C301.039,85.378 310.282,78.605 315.62,69.05C316.681,67.2 316.666,64.915 315.58,63.08Z" style="fill:white;fill-rule:nonzero;"/>
    <path d="M221.34,226.32L194.65,226.32C191.34,226.32 188.65,223.63 188.65,220.32L188.65,178.82L186.31,178.82C185.99,178.82 185.67,178.79 185.35,178.74L129.63,169.74C127.82,169.448 126.241,168.342 125.35,166.74L114.35,147.05C113.315,145.195 113.338,142.924 114.41,141.09C115.488,139.261 117.457,138.134 119.58,138.13L221.33,138.13C224.64,138.13 227.33,140.82 227.33,144.13L227.33,220.32C227.34,223.64 224.65,226.32 221.34,226.32ZM200.65,214.32L215.34,214.32L215.34,150.13L129.81,150.13L134.41,158.36L186.79,166.82L194.65,166.82C197.96,166.82 200.65,169.51 200.65,172.82L200.65,214.32ZM315.65,121.02C310.319,111.458 301.073,104.683 290.35,102.48L276.52,99.63C276.12,99.55 275.72,99.51 275.31,99.51L261.37,99.51C258.06,99.51 255.37,102.2 255.37,105.51L255.37,136.14L253.99,136.14C250.68,136.14 247.99,138.83 247.99,142.14L247.99,218.33C247.99,221.64 250.68,224.33 253.99,224.33L280.68,224.33C283.99,224.33 286.68,221.64 286.68,218.33L286.68,186.24L293.68,186.24C296.99,186.24 299.68,183.55 299.68,180.24C299.68,176.93 296.99,174.24 293.68,174.24L286.68,174.24L286.68,142.75C286.7,142.55 286.71,142.35 286.71,142.15L286.71,129.96L310.41,129.96C312.54,129.96 314.51,128.83 315.58,127C316.66,125.14 316.69,122.87 315.65,121.02ZM280.71,117.94C277.4,117.94 274.71,120.63 274.71,123.94L274.71,141.53C274.69,141.73 274.68,141.93 274.68,142.13L274.68,212.32L259.99,212.32L259.99,148.13L261.37,148.13C264.68,148.13 267.37,145.44 267.37,142.13L267.37,111.5L274.7,111.5L287.93,114.23C291.16,114.9 294.19,116.17 296.89,117.94L280.71,117.94Z" style="fill:white;fill-rule:nonzero;"/>
</svg>
