<?xml version="1.0" encoding="UTF-8" standalone="no"?>
<!DOCTYPE svg PUBLIC "-//W3C//DTD SVG 1.1//EN" "http://www.w3.org/Graphics/SVG/1.1/DTD/svg11.dtd">
<svg width="100%" height="100%" viewBox="0 0 430 430" version="1.1" xmlns="http://www.w3.org/2000/svg" xmlns:xlink="http://www.w3.org/1999/xlink" xml:space="preserve" xmlns:serif="http://www.serif.com/" style="fill-rule:evenodd;clip-rule:evenodd;stroke-linejoin:round;stroke-miterlimit:2;">
    <path d="M289.73,48.88L140.27,48.88C130.35,48.88 122.27,56.95 122.27,66.88L122.27,363.12C122.27,373.04 130.35,381.12 140.27,381.12L289.73,381.12C299.65,381.12 307.73,373.04 307.73,363.12L307.73,66.88C307.73,56.96 299.66,48.88 289.73,48.88ZM242.29,60.88L241.04,63.32C240.63,63.67 239.04,64.47 236.54,64.47L193.47,64.47C190.97,64.47 189.38,63.68 188.97,63.32L187.72,60.88L242.29,60.88ZM295.73,363.12C295.73,366.43 293.04,369.12 289.73,369.12L140.27,369.12C136.96,369.12 134.27,366.43 134.27,363.12L134.27,66.88C134.27,63.57 136.96,60.88 140.27,60.88L168.24,60.88C172.36,60.88 174.95,62.41 175.34,63.03L178.37,68.95C180.71,73.52 186.64,76.47 193.47,76.47L236.54,76.47C243.37,76.47 249.3,73.52 251.64,68.95L254.66,63.05C255.05,62.41 257.65,60.88 261.76,60.88L289.73,60.88C293.04,60.88 295.73,63.57 295.73,66.88L295.73,363.12Z" style="fill:white;fill-rule:nonzero;"/>
    <path d="M255.03,224.55L174.97,224.55C171.66,224.55 168.97,227.24 168.97,230.55C168.97,233.86 171.66,236.55 174.97,236.55L255.03,236.55C258.34,236.55 261.03,233.86 261.03,230.55C261.03,227.24 258.34,224.55 255.03,224.55ZM255.03,257.97L174.97,257.97C171.66,257.97 168.97,260.66 168.97,263.97C168.97,267.28 171.66,269.97 174.97,269.97L255.03,269.97C258.34,269.97 261.03,267.28 261.03,263.97C261.03,260.66 258.34,257.97 255.03,257.97ZM255.03,291.38L174.97,291.38C171.66,291.38 168.97,294.07 168.97,297.38C168.97,300.69 171.66,303.38 174.97,303.38L255.03,303.38C258.34,303.38 261.03,300.69 261.03,297.38C261.03,294.07 258.34,291.38 255.03,291.38Z" style="fill:white;fill-rule:nonzero;"/>
    <path d="M254.74,349.47L175.26,349.47C171.95,349.47 169.26,352.16 169.26,355.47C169.26,358.78 171.95,361.47 175.26,361.47L254.74,361.47C258.05,361.47 260.74,358.78 260.74,355.47C260.74,352.16 258.05,349.47 254.74,349.47ZM255.03,122.21L174.97,122.21C171.66,122.21 168.97,124.9 168.97,128.21L168.97,195.04C168.97,198.35 171.66,201.04 174.97,201.04L255.03,201.04C258.34,201.04 261.03,198.35 261.03,195.04L261.03,128.21C261.03,124.9 258.34,122.21 255.03,122.21ZM249.03,189.04L180.97,189.04L180.97,134.21L249.03,134.21L249.03,189.04Z" style="fill:white;fill-rule:nonzero;"/>
</svg>
