<svg xmlns="http://www.w3.org/2000/svg" viewBox="0 0 430 430">
  <defs>
    <style>
      .cls-1 {
        isolation: isolate;
      }

      .cls-2, .cls-4 {
        fill: #2b3b2e;
      }

      .cls-3, .cls-5 {
        fill: #b4824b;
      }

      .cls-4, .cls-5 {
        mix-blend-mode: multiply;
        opacity: 0.5;
      }

      .cls-6 {
        fill: #090b2e;
      }
    </style>
  </defs>
  <g class="cls-1">
    <g id="Warstwa_1" data-name="Warstwa 1">
      <g>
        <polygon class="cls-2" points="213.93 164.37 141.78 347.99 108.4 334.88 175.39 164.37 213.93 164.37"/>
        <rect class="cls-3" x="276.96" y="284.96" width="35.87" height="58.49" transform="translate(-94.5 129.65) rotate(-21.46)"/>
        <polygon class="cls-2" points="300.89 280.43 267.51 293.55 216.74 164.37 255.28 164.37 300.89 280.43"/>
        <path class="cls-3" d="M255.29,115.06v49.31H175.38V115.06a36,36,0,0,1,36-36h7.95A36,36,0,0,1,255.29,115.06Z"/>
        <polygon class="cls-4" points="117.43 338.43 108.4 334.88 175.39 164.37 184.98 164.37 117.43 338.43"/>
        <polygon class="cls-5" points="297.38 344.65 288.9 347.99 267.51 293.55 275.99 290.21 279.37 298.81 297.38 344.65"/>
        <path class="cls-5" d="M220.56,79.1A36.87,36.87,0,0,0,185,115.94v48.43h-9.6V115.06a36,36,0,0,1,36-36h7.95Z"/>
        <polygon class="cls-4" points="275.99 290.21 267.51 293.55 221.02 175.25 216.74 164.37 224.87 164.37 275.99 290.21"/>
        <path class="cls-6" d="M215.35,137h-.71a6,6,0,0,1,0-12h.71a6,6,0,0,1,0,12Z"/>
        <path class="cls-6" d="M375.12,373.73H321.94L309.81,343.4l13.41-5.28a3.49,3.49,0,0,0,2-4.53L305.09,282.4l2.23-.87a24,24,0,0,0-17.57-44.72l-2.24.88-29.06-73.95V115.06A39.52,39.52,0,0,0,219,75.58h-.47V52.77a3.5,3.5,0,1,0-7,0V75.58H211a39.52,39.52,0,0,0-39.48,39.48v48.68L104.8,333.6a3.49,3.49,0,0,0,2,4.53l13.41,5.27-12.13,30.33H54.88a3.5,3.5,0,1,0,0,7H375.12a3.5,3.5,0,0,0,0-7ZM317.4,332.89l-26.86,10.56L271.7,295.53,298.57,285Zm-25.09-89.56A17,17,0,1,1,304.76,275l-2.24.88L290.07,244.2Zm3.7,35.13L269.14,289l-47.6-121.15h31ZM178.54,115.06A32.52,32.52,0,0,1,211,82.58H219a32.52,32.52,0,0,1,32.48,32.48v45.81H178.54ZM112.6,332.9l64.84-165h31l-69,175.58Zm3,40.83L126.71,346l13.45,5.29a3.58,3.58,0,0,0,1.28.24,3.52,3.52,0,0,0,3.26-2.22h0L215,170.37l70.31,178.9a3.49,3.49,0,0,0,2.74,2.18,3,3,0,0,0,.52,0,3.58,3.58,0,0,0,1.28-.24L303.29,346l11.11,27.77Z"/>
      </g>
    </g>
  </g>
</svg>
