<?xml version="1.0" encoding="utf-8"?>
<!-- Generator: Adobe Illustrator 26.3.1, SVG Export Plug-In . SVG Version: 6.00 Build 0)  -->
<svg version="1.1" id="Warstwa_1" xmlns="http://www.w3.org/2000/svg" xmlns:xlink="http://www.w3.org/1999/xlink" x="0px" y="0px"
	 viewBox="0 0 430 430" style="enable-background:new 0 0 430 430;" xml:space="preserve">
<style type="text/css">
	.Styl_x0020_grafiki_x0020_574{opacity:0.5;fill:#b4824b;}
	.Styl_x0020_grafiki_x0020_575{fill:#b4824b;}
	.st0{fill:#646E78;}
	.st1{fill:none;stroke:#646E78;stroke-width:7;stroke-linecap:round;stroke-linejoin:round;stroke-miterlimit:10;}
	.st2{fill:#b4824b;}
	.st3{fill:#151e17;}
	.st4{fill:#3A3347;}
	.st5{fill:#92140C;}
	.st6{fill:#2b3b2e;}
	.st7{opacity:0.5;fill:#2b3b2e;}
	.st8{opacity:0.5;fill:#b4824b;}
	.st9{fill:#FFC738;}
	.st10{opacity:0.5;fill:#FFC738;}
	.st11{fill:#151e17;stroke:#b4824b;stroke-width:7;stroke-linecap:round;stroke-linejoin:round;stroke-miterlimit:10;}
	.st12{fill:#4BB3FD;}
	.st13{opacity:0.5;fill:#4BB3FD;}
	.st14{fill:none;stroke:#151e17;stroke-width:7;stroke-linecap:round;stroke-linejoin:round;stroke-miterlimit:10;}
	.st15{opacity:0.5;}
	.st16{fill:#151e17;stroke:#4BB3FD;stroke-width:30;stroke-linecap:round;stroke-linejoin:round;stroke-miterlimit:10;}
	.st17{fill:none;stroke:#151e17;stroke-width:12;stroke-linecap:round;stroke-linejoin:round;}
	.st18{fill:#2CA58D;}
	.st19{fill:none;stroke:#08A88A;stroke-width:12;stroke-linecap:round;stroke-linejoin:round;stroke-miterlimit:10;}
	.st20{opacity:0.5;fill:#2CA58D;}
	.st21{opacity:0.5;fill:#646E78;}
	.st22{fill:none;stroke:#FFC738;stroke-width:7;stroke-linecap:round;stroke-linejoin:round;stroke-miterlimit:10;}
	.st23{fill:#3A3347;stroke:#151e17;stroke-width:7;stroke-linecap:round;stroke-linejoin:round;stroke-miterlimit:10;}
	.st24{opacity:0.5;fill:#3A3347;}
	.st25{fill:url(#SVGID_1_);}
	.st26{fill:url(#SVGID_00000170270762295526715560000001960202479587399043_);}
	.st27{fill:url(#SVGID_00000146474137625489450540000013611564201898104966_);}
	.st28{fill:#B26836;}
	.st29{opacity:0.5;fill:#92140C;}
	.st30{fill:#F28BA8;}
	.st31{fill:none;stroke:#b4824b;stroke-width:7;stroke-linecap:round;stroke-linejoin:round;stroke-miterlimit:10;}
	.st32{opacity:0.5;fill:#B26836;}
	.st33{fill:#08A789;}
	.st34{fill:#FFFFFF;}
	.st35{fill:none;stroke:#B26836;stroke-width:7;stroke-linecap:round;stroke-linejoin:round;stroke-miterlimit:10;}
	.st36{opacity:0.99;fill:#b4824b;}
	.st37{fill:#F9C9C0;}
	.st38{opacity:0.5;fill:#F9C9C0;}
	.st39{opacity:0.5;fill:#F28BA8;}
	.st40{fill:none;stroke:#08A284;stroke-width:12;stroke-linecap:round;stroke-linejoin:round;stroke-miterlimit:10;}
	.st41{fill:none;stroke:#92140C;stroke-width:7;stroke-linecap:round;stroke-linejoin:round;stroke-miterlimit:10;}
	.st42{fill:none;stroke:#08A688;stroke-width:12;stroke-linecap:round;stroke-linejoin:round;stroke-miterlimit:10;}
	.st43{opacity:0.96;fill:#b4824b;}
	.st44{fill:none;stroke:#151e17;stroke-width:12;stroke-linecap:round;stroke-linejoin:round;stroke-miterlimit:10;}
	.st45{fill:#08A88A;}
	.st46{fill:none;stroke:#2CA58D;stroke-width:7;stroke-linecap:round;stroke-linejoin:round;stroke-miterlimit:10;}
	.st47{fill:#151e17;stroke:#FFC738;stroke-width:7;stroke-linecap:round;stroke-linejoin:round;stroke-miterlimit:10;}
	.st48{fill:#151e17;stroke:#92140C;stroke-width:7;stroke-linejoin:round;stroke-miterlimit:10;}
	.st49{fill:none;stroke:#92140C;stroke-width:7;stroke-linejoin:round;stroke-miterlimit:10;}
	.st50{opacity:0.75;fill:#b4824b;}
	.st51{fill:#151e17;stroke:#646E78;stroke-width:12;stroke-linecap:round;stroke-linejoin:round;stroke-miterlimit:10;}
	.st52{fill:#E94E12;}
	.st53{fill:#E84F16;}
	.st54{opacity:0.5;fill:#FFFFFF;}
</style>
<rect x="54.88" y="116.02" class="Styl_x0020_grafiki_x0020_575" width="320.24" height="197.97"/>
<rect x="54.88" y="116.02" class="Styl_x0020_grafiki_x0020_574" width="35.55" height="197.97"/>
<path class="st3" d="M252.85,317.48H54.88c-1.93,0-3.5-1.57-3.5-3.5V116.02c0-1.93,1.57-3.5,3.5-3.5h197.97c1.93,0,3.5,1.57,3.5,3.5
	v197.96C256.35,315.92,254.78,317.48,252.85,317.48z M58.38,310.48h190.97V119.52H58.38V310.48z"/>
<path class="st3" d="M375.12,241.79H252.85c-1.93,0-3.5-1.57-3.5-3.5V116.02c0-1.93,1.57-3.5,3.5-3.5h122.27
	c1.93,0,3.5,1.57,3.5,3.5v122.27C378.62,240.22,377.05,241.79,375.12,241.79z M256.35,234.79h115.27V119.52H256.35V234.79z"/>
<path class="st3" d="M375.12,317.48h-75.69c-1.93,0-3.5-1.57-3.5-3.5v-75.69c0-1.93,1.57-3.5,3.5-3.5h75.69c1.93,0,3.5,1.57,3.5,3.5
	v75.69C378.62,315.92,377.05,317.48,375.12,317.48z M302.93,310.48h68.69v-68.69h-68.69V310.48z"/>
<path class="st3" d="M375.12,317.48c-1.17,0-2.32-0.59-2.98-1.66l-88.16-142.73c-1.02-1.64-0.51-3.8,1.14-4.82
	c1.64-1.02,3.8-0.51,4.82,1.14l88.16,142.73c1.02,1.64,0.51,3.8-1.14,4.82C376.39,317.31,375.75,317.48,375.12,317.48z"/>
<path class="st3" d="M54.88,317.48c-1.17,0-2.32-0.59-2.98-1.66c-1.02-1.64-0.51-3.8,1.14-4.82l320.24-197.96
	c1.65-1.01,3.8-0.51,4.82,1.14c1.02,1.64,0.51,3.8-1.14,4.82L56.72,316.96C56.15,317.31,55.51,317.48,54.88,317.48z"/>
<path class="st3" d="M299.43,317.48h-46.58c-1.93,0-3.5-1.57-3.5-3.5s1.57-3.5,3.5-3.5h46.58c1.93,0,3.5,1.57,3.5,3.5
	S301.36,317.48,299.43,317.48z"/>
<path class="st6" d="M299.43,317.48c-27.61,0-50.08-22.47-50.08-50.08c0-17.98,14.63-32.61,32.61-32.61
	c11.56,0,20.97,9.41,20.97,20.97c0,8.31-6.72,15.07-15.01,15.14c-0.03,0-0.06,0-0.09,0c-0.05,0-0.1,0-0.15,0
	c-5.06-0.09-9.15-4.24-9.15-9.32c0-5.14,4.18-9.32,9.32-9.32c1.93,0,3.5,1.57,3.5,3.5s-1.57,3.5-3.5,3.5
	c-1.28,0-2.32,1.04-2.32,2.32c0,1.27,1.03,2.31,2.3,2.32c4.47-0.02,8.1-3.67,8.1-8.14c0-7.7-6.27-13.97-13.97-13.97
	c-14.12,0-25.61,11.49-25.61,25.61c0,23.75,19.33,43.08,43.08,43.08c39.81,0,72.19-32.39,72.19-72.19
	c0-65.49-53.28-118.77-118.77-118.77c-107.23,0-194.47,87.24-194.47,194.46c0,1.93-1.57,3.5-3.5,3.5s-3.5-1.57-3.5-3.5
	c0-111.09,90.38-201.46,201.47-201.46c69.35,0,125.77,56.42,125.77,125.77C378.62,281.96,343.09,317.48,299.43,317.48z"/>
</svg>
