<svg xmlns="http://www.w3.org/2000/svg" viewBox="0 0 430 430">
  <defs>
    <style>
      .cls-1 {
        isolation: isolate;
      }

      .cls-2, .cls-4 {
        fill: #2b3b2e;
      }

      .cls-3, .cls-5 {
        fill: #b26836;
      }

      .cls-4, .cls-5, .cls-7 {
        mix-blend-mode: multiply;
        opacity: 0.5;
      }

      .cls-6, .cls-7 {
        fill: #4bb3fd;
      }

      .cls-8 {
        fill: #090b2e;
      }
    </style>
  </defs>
  <g class="cls-1">
    <g id="Warstwa_1" data-name="Warstwa 1">
      <g>
        <path class="cls-2" d="M326.08,163.88v3a56.31,56.31,0,0,1-56.32,56.31,22.07,22.07,0,0,0-22,23.5l7.33,98c1.16,17.92-11.7,33.37-28.64,33.37H203.54c-16.94,0-29.79-15.45-28.64-33.37l7.33-98a22.07,22.07,0,0,0-22-23.5,56.32,56.32,0,0,1-56.32-56.31v-3h70.79v6.91a17.72,17.72,0,1,0,35.43,0v-6.91Z"/>
        <path class="cls-3" d="M174.68,102.93v60.95H103.89v-62a17.79,17.79,0,0,0,17.69,16.68,18,18,0,0,0,17.7-16.81A17.76,17.76,0,0,1,157,85.21a17.77,17.77,0,0,1,17.72,17.72Z"/>
        <path class="cls-4" d="M227.43,378l-1,0H203.54c-16.94,0-29.79-15.45-28.64-33.37l7.33-98a22.07,22.07,0,0,0-22-23.5,56.32,56.32,0,0,1-56.32-56.31v-3h20a59.54,59.54,0,0,0,58.84,50.46A23.34,23.34,0,0,1,206,239.18l-7.75,103.61C197,361.36,210.05,377.42,227.43,378Z"/>
        <path class="cls-5" d="M123.84,163.88h-20v-62a17.79,17.79,0,0,0,17.69,16.68,13.53,13.53,0,0,0,1.57-.08v36.34A58.82,58.82,0,0,0,123.84,163.88Z"/>
        <polygon class="cls-3" points="326.08 52.2 326.08 163.88 210.11 163.88 210.11 88.32 210.13 52.2 255.75 52.2 268.98 111.62 292.68 52.2 326.08 52.2"/>
        <path class="cls-6" d="M210.13,52.2l0,36.12v82.47a17.72,17.72,0,1,1-35.43,0V102.93A17.77,17.77,0,0,0,157,85.21a17.76,17.76,0,0,0-17.68,16.54,18,18,0,0,1-17.7,16.81,17.79,17.79,0,0,1-17.69-16.68V51.94H210.13Z"/>
        <path class="cls-7" d="M138.63,105.46a17.69,17.69,0,0,1-34.74-3.58V81.35s9,36.28,29.93,26.93A26.48,26.48,0,0,0,138.63,105.46Z"/>
        <path class="cls-7" d="M209.27,176.16a17.71,17.71,0,0,1-34.59-5.37v-22S181.42,193,209.27,176.16Z"/>
        <path class="cls-8" d="M215.06,342.89a6,6,0,0,1-.08-12h.08a6,6,0,1,1,0,12Z"/>
        <path class="cls-8" d="M326.11,48.7h-33.4a3.5,3.5,0,0,0-3.25,2.2L270,99.79,259.2,51.44a3.51,3.51,0,0,0-3.42-2.74H211.47a3.56,3.56,0,0,0-1.31-.26H103.92a3.5,3.5,0,0,0-3.5,3.5s0,.08,0,.12a.68.68,0,0,0,0,.14l0,48.64c0,.35,0,.7,0,1v65a59.83,59.83,0,0,0,59.82,59.81,18.58,18.58,0,0,1,18.53,19.74l-7.33,98.06a36.29,36.29,0,0,0,9.46,27.12,30.85,30.85,0,0,0,22.67,10h22.89a30.85,30.85,0,0,0,22.69-10,36.26,36.26,0,0,0,9.44-27.15l-7.32-98a18.57,18.57,0,0,1,18.52-19.77,59.88,59.88,0,0,0,59.82-59.81V52.2A3.5,3.5,0,0,0,326.11,48.7ZM169,85.47a22.09,22.09,0,0,0-12-3.76,21.25,21.25,0,0,0-21.17,19.81,14.57,14.57,0,0,1-14.21,13.54,14.23,14.23,0,0,1-14.19-13.33V55.44h99.24l0,32.88v82.47a14.22,14.22,0,1,1-28.43,0V102.93A22.14,22.14,0,0,0,169,85.47Zm-61.6,31.12a21.15,21.15,0,0,0,14.19,5.47A21.42,21.42,0,0,0,142.81,102,14.25,14.25,0,0,1,157,88.71a14.26,14.26,0,0,1,14.22,14.22v57.45H107.42ZM269.79,219.67a25.29,25.29,0,0,0-18.64,8.08,25.72,25.72,0,0,0-6.87,19.18l7.33,98A29.24,29.24,0,0,1,244,366.79a23.92,23.92,0,0,1-17.58,7.77H203.57A24,24,0,0,1,186,366.8,29.27,29.27,0,0,1,178.42,345l7.34-98a25.73,25.73,0,0,0-6.87-19.15,25.33,25.33,0,0,0-18.65-8.08,52.79,52.79,0,0,1-52.8-52.29h63.77v3.41a21.22,21.22,0,1,0,42.43,0v-3.41h109A52.87,52.87,0,0,1,269.79,219.67Zm52.82-59.29h-109V88.32l0-32.62H253l12.62,56.68a3.5,3.5,0,0,0,6.66.54L295.09,55.7h27.52Z"/>
      </g>
    </g>
  </g>
</svg>
