<?xml version="1.0" encoding="utf-8"?>
<!-- Generator: Adobe Illustrator 24.1.2, SVG Export Plug-In . SVG Version: 6.00 Build 0)  -->
<svg version="1.1" id="Warstwa_3" xmlns="http://www.w3.org/2000/svg" xmlns:xlink="http://www.w3.org/1999/xlink" x="0px" y="0px"
	 viewBox="0 0 430 430" style="enable-background:new 0 0 430 430;" xml:space="preserve">
<style type="text/css">
	.st0{fill:#121331;}
	.st1{fill:#6b9474;}
	.st2{fill:none;stroke:#121331;stroke-width:12;stroke-linecap:round;stroke-linejoin:round;stroke-miterlimit:10;}
	.st3{fill:none;stroke:#6b9474;stroke-width:12;stroke-linecap:round;stroke-linejoin:round;stroke-miterlimit:10;}
	.st4{fill:#6b9474;}
</style>
<g>
	<path class="st1" d="M215.05,345.89c-4.97,0-9.04-4.03-9.04-9s3.99-9,8.96-9h0.07c4.97,0,9,4.03,9,9S220.02,345.89,215.05,345.89z"
		/>
	<g>
		<path class="st0" d="M172.71,169.88h-68.79c-3.31,0-6-2.69-6-6s2.69-6,6-6h68.79c3.31,0,6,2.69,6,6S176.02,169.88,172.71,169.88z"
			/>
		<path class="st0" d="M326.11,169.88H212.14c-3.31,0-6-2.69-6-6s2.69-6,6-6h113.97c3.31,0,6,2.69,6,6S329.42,169.88,326.11,169.88z
			"/>
		<path class="st0" d="M226.46,384.06h-22.89c-9.29,0-17.99-3.82-24.5-10.76c-7.13-7.6-10.82-18.17-10.13-28.99l7.33-98.08
			c0.29-4.42-1.25-8.7-4.32-11.98c-3.07-3.27-7.23-5.08-11.71-5.08c-16.66,0-32.31-6.48-44.06-18.25
			c-11.77-11.77-18.26-27.42-18.26-44.06V52.2c0-3.31,2.69-6,6-6c3.31,0,6,2.69,6,6v114.66c0,13.44,5.24,26.07,14.74,35.58
			c9.49,9.5,22.13,14.73,35.58,14.73c7.72,0,15.18,3.23,20.47,8.87c5.29,5.64,8.04,13.3,7.54,21.02l-7.33,98.08
			c-0.48,7.46,2.04,14.76,6.91,19.95c4.22,4.49,9.81,6.97,15.75,6.97h22.89c5.94,0,11.54-2.48,15.76-6.98
			c4.87-5.19,7.38-12.49,6.9-20l-7.33-97.96c-0.5-7.78,2.25-15.44,7.54-21.08c5.28-5.64,12.74-8.87,20.47-8.87
			c27.75,0,50.32-22.57,50.32-50.31V58.2h-23.33l-22.19,55.64c-0.97,2.45-3.42,3.97-6.05,3.76c-2.62-0.21-4.8-2.11-5.38-4.68
			L250.97,58.2h-40.81c-3.31,0-6-2.69-6-6s2.69-6,6-6h45.62c2.81,0,5.25,1.95,5.86,4.7l9,40.44l16.5-41.36
			c0.91-2.28,3.12-3.78,5.57-3.78h33.4c3.31,0,6,2.69,6,6v114.66c0,34.36-27.96,62.31-62.32,62.31c-4.48,0-8.65,1.8-11.71,5.08
			c-3.07,3.28-4.61,7.55-4.32,12.04l7.33,97.96c0.7,10.88-2.98,21.44-10.11,29.05C244.46,380.23,235.76,384.06,226.46,384.06z"/>
		<path class="st1" d="M192.43,194.51c-13.08,0-23.72-10.64-23.72-23.72v-67.86c0-3-1.61-7.17-5.2-9.72c-1.4-1-4.08-2-6.52-2
			c-2.36,0-4.65,0.71-6.6,2.05c-3.01,2.06-4.86,5.29-5.09,8.87c-0.83,12.58-11.24,22.42-23.69,22.42
			c-12.55,0-22.95-9.81-23.68-22.33c-0.03-0.45-0.04-0.92-0.04-1.39l0.03-48.64c0-3.31,2.69-6,6-6c0,0,0,0,0,0c3.31,0,6,2.69,6,6
			l-0.03,48.64c0,0.23,0.01,0.46,0.02,0.68c0.36,6.19,5.5,11.03,11.7,11.03c6.05,0,11.3-5.03,11.71-11.21
			c0.47-7.27,4.22-13.83,10.28-17.98c3.95-2.72,8.59-4.16,13.39-4.16c4.66,0,9.83,1.62,13.48,4.23
			c7.55,5.35,10.24,13.58,10.24,19.49v67.86c0,6.46,5.26,11.72,11.72,11.72c6.46,0,11.71-5.26,11.71-11.72V88.32l0.02-36.12
			c0-3.31,2.69-6,6-6c0,0,0,0,0,0c3.31,0,6,2.69,6,6l-0.02,36.12v82.47C216.14,183.87,205.5,194.51,192.43,194.51z"/>
		<path class="st1" d="M210.16,57.94H103.92c-3.31,0-6-2.69-6-6s2.69-6,6-6h106.23c3.31,0,6,2.69,6,6S213.47,57.94,210.16,57.94z"/>
	</g>
</g>
</svg>
